  <svg class="icon-card-serv" aria-hidden="true" focusable="false" width="90" height="90"
                                    viewBox="0 0 90 90" fill="none" xmlns="http://www.w3.org/2000/svg">
                                    <circle cx="45" cy="45" r="43.5" fill="#26B5D9" stroke="#176D82" stroke-width="3" />
                                    <path
                                        d="M54.8662 33.3242C55.1321 34.0026 55.6813 34.531 56.3691 34.7715L58.4531 35.5L56.3691 36.2285C55.6813 36.469 55.1321 36.9974 54.8662 37.6758L54 39.8867L53.1338 37.6758L53.0205 37.4287C52.7279 36.8698 52.2326 36.439 51.6309 36.2285L49.5459 35.5L51.6309 34.7715C52.3187 34.531 52.8679 34.0026 53.1338 33.3242L54 31.1123L54.8662 33.3242Z"
                                        fill="url(#paint0_linear_3080_3835)" stroke="#176D82" stroke-width="3" />
                                    <mask id="path-3-inside-1_3080_3835" fill="white">
                                        <path
                                            d="M72.2186 28.7604C72.3153 28.4992 72.6847 28.4992 72.7814 28.7604L73.3974 30.4253C73.4278 30.5074 73.4926 30.5722 73.5747 30.6026L75.2396 31.2186C75.5008 31.3153 75.5008 31.6847 75.2396 31.7814L73.5747 32.3974C73.4926 32.4278 73.4278 32.4926 73.3974 32.5747L72.7814 34.2396C72.6847 34.5008 72.3153 34.5008 72.2186 34.2396L71.6026 32.5747C71.5722 32.4926 71.5074 32.4278 71.4253 32.3974L69.7604 31.7814C69.4992 31.6847 69.4992 31.3153 69.7604 31.2186L71.4253 30.6026C71.5074 30.5722 71.5722 30.5074 71.6026 30.4253L72.2186 28.7604Z" />
                                    </mask>
                                    <path
                                        d="M72.2186 28.7604C72.3153 28.4992 72.6847 28.4992 72.7814 28.7604L73.3974 30.4253C73.4278 30.5074 73.4926 30.5722 73.5747 30.6026L75.2396 31.2186C75.5008 31.3153 75.5008 31.6847 75.2396 31.7814L73.5747 32.3974C73.4926 32.4278 73.4278 32.4926 73.3974 32.5747L72.7814 34.2396C72.6847 34.5008 72.3153 34.5008 72.2186 34.2396L71.6026 32.5747C71.5722 32.4926 71.5074 32.4278 71.4253 32.3974L69.7604 31.7814C69.4992 31.6847 69.4992 31.3153 69.7604 31.2186L71.4253 30.6026C71.5074 30.5722 71.5722 30.5074 71.6026 30.4253L72.2186 28.7604Z"
                                        fill="url(#paint1_linear_3080_3835)" />
                                    <path
                                        d="M71.4253 30.6026L70.3842 27.789L71.4253 30.6026ZM71.6026 30.4253L68.789 29.3842L71.6026 30.4253ZM71.6026 32.5747L68.789 33.6158L71.6026 32.5747ZM71.4253 32.3974L72.4664 29.5839L71.4253 32.3974ZM72.2186 34.2396L69.4051 35.2808L72.2186 34.2396ZM73.5747 32.3974L72.5336 29.5839L73.5747 32.3974ZM73.3974 32.5747L70.5839 31.5336L73.3974 32.5747ZM73.3974 30.4253L70.5839 31.4664L73.3974 30.4253ZM73.5747 30.6026L74.6158 27.789L73.5747 30.6026ZM72.7814 28.7604L69.9678 29.8015L70.5839 31.4664L73.3974 30.4253L76.211 29.3842L75.5949 27.7192L72.7814 28.7604ZM73.5747 30.6026L72.5336 33.4161L74.1985 34.0322L75.2396 31.2186L76.2808 28.4051L74.6158 27.789L73.5747 30.6026ZM75.2396 31.7814L74.1985 28.9678L72.5336 29.5839L73.5747 32.3974L74.6158 35.211L76.2808 34.5949L75.2396 31.7814ZM73.3974 32.5747L70.5839 31.5336L69.9678 33.1985L72.7814 34.2396L75.5949 35.2808L76.211 33.6158L73.3974 32.5747ZM72.2186 34.2396L75.0322 33.1985L74.4161 31.5336L71.6026 32.5747L68.789 33.6158L69.4051 35.2808L72.2186 34.2396ZM71.4253 32.3974L72.4664 29.5839L70.8015 28.9678L69.7604 31.7814L68.7192 34.5949L70.3842 35.211L71.4253 32.3974ZM69.7604 31.2186L70.8015 34.0322L72.4664 33.4161L71.4253 30.6026L70.3842 27.789L68.7192 28.4051L69.7604 31.2186ZM71.6026 30.4253L74.4161 31.4664L75.0322 29.8015L72.2186 28.7604L69.4051 27.7192L68.789 29.3842L71.6026 30.4253ZM71.4253 30.6026L72.4664 33.4161C73.3697 33.0819 74.0819 32.3697 74.4161 31.4664L71.6026 30.4253L68.789 29.3842C69.0625 28.6452 69.6452 28.0625 70.3842 27.789L71.4253 30.6026ZM69.7604 31.7814L70.8015 28.9678C73.1522 29.8376 73.1521 33.1624 70.8015 34.0322L69.7604 31.2186L68.7192 28.4051C65.8462 29.4682 65.8462 33.5318 68.7192 34.5949L69.7604 31.7814ZM71.6026 32.5747L74.4161 31.5336C74.0819 30.6303 73.3697 29.9181 72.4664 29.5839L71.4253 32.3974L70.3842 35.211C69.6452 34.9375 69.0625 34.3548 68.789 33.6158L71.6026 32.5747ZM72.7814 34.2396L69.9678 33.1985C70.8376 30.8478 74.1624 30.8479 75.0322 33.1985L72.2186 34.2396L69.4051 35.2808C70.4682 38.1538 74.5318 38.1538 75.5949 35.2808L72.7814 34.2396ZM73.5747 32.3974L72.5336 29.5839C71.6303 29.9181 70.9181 30.6303 70.5839 31.5336L73.3974 32.5747L76.211 33.6158C75.9375 34.3548 75.3548 34.9375 74.6158 35.211L73.5747 32.3974ZM75.2396 31.2186L74.1985 34.0322C71.8478 33.1624 71.8479 29.8376 74.1985 28.9678L75.2396 31.7814L76.2808 34.5949C79.1538 33.5318 79.1538 29.4682 76.2808 28.4051L75.2396 31.2186ZM73.3974 30.4253L70.5839 31.4664C70.9181 32.3697 71.6303 33.0819 72.5336 33.4161L73.5747 30.6026L74.6158 27.789C75.3548 28.0625 75.9375 28.6452 76.211 29.3842L73.3974 30.4253ZM72.7814 28.7604L75.5949 27.7192C74.5318 24.8462 70.4682 24.8462 69.4051 27.7192L72.2186 28.7604L75.0322 29.8015C74.1624 32.1522 70.8376 32.1521 69.9678 29.8015L72.7814 28.7604Z"
                                        fill="#176D82" mask="url(#path-3-inside-1_3080_3835)" />
                                    <mask id="path-5-inside-2_3080_3835" fill="white">
                                        <path
                                            d="M44.2186 10.7604C44.3153 10.4992 44.6847 10.4992 44.7814 10.7604L45.3974 12.4253C45.4278 12.5074 45.4926 12.5722 45.5747 12.6026L47.2396 13.2186C47.5008 13.3153 47.5008 13.6847 47.2396 13.7814L45.5747 14.3974C45.4926 14.4278 45.4278 14.4926 45.3974 14.5747L44.7814 16.2396C44.6847 16.5008 44.3153 16.5008 44.2186 16.2396L43.6026 14.5747C43.5722 14.4926 43.5074 14.4278 43.4253 14.3974L41.7604 13.7814C41.4992 13.6847 41.4992 13.3153 41.7604 13.2186L43.4253 12.6026C43.5074 12.5722 43.5722 12.5074 43.6026 12.4253L44.2186 10.7604Z" />
                                    </mask>
                                    <path
                                        d="M44.2186 10.7604C44.3153 10.4992 44.6847 10.4992 44.7814 10.7604L45.3974 12.4253C45.4278 12.5074 45.4926 12.5722 45.5747 12.6026L47.2396 13.2186C47.5008 13.3153 47.5008 13.6847 47.2396 13.7814L45.5747 14.3974C45.4926 14.4278 45.4278 14.4926 45.3974 14.5747L44.7814 16.2396C44.6847 16.5008 44.3153 16.5008 44.2186 16.2396L43.6026 14.5747C43.5722 14.4926 43.5074 14.4278 43.4253 14.3974L41.7604 13.7814C41.4992 13.6847 41.4992 13.3153 41.7604 13.2186L43.4253 12.6026C43.5074 12.5722 43.5722 12.5074 43.6026 12.4253L44.2186 10.7604Z"
                                        fill="url(#paint2_linear_3080_3835)" />
                                    <path
                                        d="M43.4253 12.6026L42.3842 9.789L43.4253 12.6026ZM43.6026 12.4253L40.789 11.3842L43.6026 12.4253ZM43.6026 14.5747L40.789 15.6158L43.6026 14.5747ZM43.4253 14.3974L44.4664 11.5839L43.4253 14.3974ZM44.2186 16.2396L41.4051 17.2808L44.2186 16.2396ZM45.5747 14.3974L44.5336 11.5839L45.5747 14.3974ZM45.3974 14.5747L42.5839 13.5336L45.3974 14.5747ZM45.3974 12.4253L42.5839 13.4664L45.3974 12.4253ZM45.5747 12.6026L46.6158 9.789L45.5747 12.6026ZM44.7814 10.7604L41.9678 11.8015L42.5839 13.4664L45.3974 12.4253L48.211 11.3842L47.5949 9.71924L44.7814 10.7604ZM45.5747 12.6026L44.5336 15.4161L46.1985 16.0322L47.2396 13.2186L48.2808 10.4051L46.6158 9.789L45.5747 12.6026ZM47.2396 13.7814L46.1985 10.9678L44.5336 11.5839L45.5747 14.3974L46.6158 17.211L48.2808 16.5949L47.2396 13.7814ZM45.3974 14.5747L42.5839 13.5336L41.9678 15.1985L44.7814 16.2396L47.5949 17.2808L48.211 15.6158L45.3974 14.5747ZM44.2186 16.2396L47.0322 15.1985L46.4161 13.5336L43.6026 14.5747L40.789 15.6158L41.4051 17.2808L44.2186 16.2396ZM43.4253 14.3974L44.4664 11.5839L42.8015 10.9678L41.7604 13.7814L40.7192 16.5949L42.3842 17.211L43.4253 14.3974ZM41.7604 13.2186L42.8015 16.0322L44.4664 15.4161L43.4253 12.6026L42.3842 9.789L40.7192 10.4051L41.7604 13.2186ZM43.6026 12.4253L46.4161 13.4664L47.0322 11.8015L44.2186 10.7604L41.4051 9.71924L40.789 11.3842L43.6026 12.4253ZM43.4253 12.6026L44.4664 15.4161C45.3697 15.0819 46.0819 14.3697 46.4161 13.4664L43.6026 12.4253L40.789 11.3842C41.0625 10.6452 41.6452 10.0625 42.3842 9.789L43.4253 12.6026ZM41.7604 13.7814L42.8015 10.9678C45.1522 11.8376 45.1521 15.1624 42.8015 16.0322L41.7604 13.2186L40.7192 10.4051C37.8462 11.4682 37.8462 15.5318 40.7192 16.5949L41.7604 13.7814ZM43.6026 14.5747L46.4161 13.5336C46.0819 12.6303 45.3697 11.9181 44.4664 11.5839L43.4253 14.3974L42.3842 17.211C41.6452 16.9375 41.0625 16.3548 40.789 15.6158L43.6026 14.5747ZM44.7814 16.2396L41.9678 15.1985C42.8376 12.8478 46.1624 12.8479 47.0322 15.1985L44.2186 16.2396L41.4051 17.2808C42.4682 20.1538 46.5318 20.1538 47.5949 17.2808L44.7814 16.2396ZM45.5747 14.3974L44.5336 11.5839C43.6303 11.9181 42.9181 12.6303 42.5839 13.5336L45.3974 14.5747L48.211 15.6158C47.9375 16.3548 47.3548 16.9375 46.6158 17.211L45.5747 14.3974ZM47.2396 13.2186L46.1985 16.0322C43.8478 15.1624 43.8479 11.8376 46.1985 10.9678L47.2396 13.7814L48.2808 16.5949C51.1538 15.5318 51.1538 11.4682 48.2808 10.4051L47.2396 13.2186ZM45.3974 12.4253L42.5839 13.4664C42.9181 14.3697 43.6303 15.0819 44.5336 15.4161L45.5747 12.6026L46.6158 9.789C47.3548 10.0625 47.9375 10.6452 48.211 11.3842L45.3974 12.4253ZM44.7814 10.7604L47.5949 9.71924C46.5318 6.84623 42.4682 6.84618 41.4051 9.71924L44.2186 10.7604L47.0322 11.8015C46.1624 14.1522 42.8376 14.1521 41.9678 11.8015L44.7814 10.7604Z"
                                        fill="#176D82" mask="url(#path-5-inside-2_3080_3835)" />
                                    <path
                                        d="M57 22.5C60.0536 22.5 62.6443 24.015 64.5156 26.4209C66.3996 28.8431 67.5 32.1152 67.5 35.4004C67.4999 37.7264 66.9425 40.5604 66.0791 43.1191C65.2 45.7242 64.0896 47.7891 63.1396 48.7393C62.6297 49.2492 62.2381 49.9964 61.9238 50.707C61.5903 51.4613 61.2629 52.3676 60.9395 53.3379C60.6148 54.3118 60.282 55.3878 59.9414 56.4844C59.5988 57.5871 59.2463 58.717 58.877 59.8252C58.1306 62.0643 57.3458 64.1141 56.4912 65.584C56.0642 66.3184 55.6628 66.8309 55.3037 67.1455C54.9553 67.4507 54.7295 67.5 54.5996 67.5C52.3439 67.4999 51.1703 66.674 50.4316 65.5508C49.6073 64.2972 49.2213 62.5106 49.0059 60.4443C48.8999 59.4278 48.8408 58.4174 48.7705 57.4111C48.702 56.4302 48.6223 55.4408 48.4707 54.5684C48.3238 53.7231 48.0818 52.8064 47.582 52.0752C47.016 51.2471 46.142 50.7002 45 50.7002C43.858 50.7002 42.984 51.2471 42.418 52.0752C41.9182 52.8064 41.6762 53.7231 41.5293 54.5684C41.3777 55.4408 41.298 56.4302 41.2295 57.4111C41.1592 58.4174 41.1001 59.4278 40.9941 60.4443C40.7787 62.5106 40.3927 64.2972 39.5684 65.5508C38.8297 66.674 37.6561 67.4999 35.4004 67.5C35.2705 67.5 35.0447 67.4507 34.6963 67.1455C34.3372 66.8309 33.9358 66.3184 33.5088 65.584C32.6542 64.1141 31.8694 62.0643 31.123 59.8252C30.7537 58.717 30.4012 57.5871 30.0586 56.4844C29.718 55.3878 29.3852 54.3118 29.0605 53.3379C28.7371 52.3676 28.4097 51.4613 28.0762 50.707C27.7619 49.9964 27.3703 49.2492 26.8604 48.7393C25.9104 47.7891 24.8 45.7242 23.9209 43.1191C23.0575 40.5604 22.5001 37.7264 22.5 35.4004C22.5 32.1152 23.6004 28.8431 25.4844 26.4209C27.3557 24.015 29.9464 22.5 33 22.5C36.3821 22.5 37.993 23.0529 39.3428 23.5928C40.8156 24.1819 42.271 24.9004 45 24.9004C47.729 24.9004 49.1844 24.1819 50.6572 23.5928C52.007 23.0529 53.6179 22.5 57 22.5Z"
                                        fill="white" />
                                    <path
                                        d="M57 22.5C60.0536 22.5 62.6443 24.015 64.5156 26.4209C66.3996 28.8431 67.5 32.1152 67.5 35.4004C67.4999 37.7264 66.9425 40.5604 66.0791 43.1191C65.2 45.7242 64.0896 47.7891 63.1396 48.7393C62.6297 49.2492 62.2381 49.9964 61.9238 50.707C61.5903 51.4613 61.2629 52.3676 60.9395 53.3379C60.6148 54.3118 60.282 55.3878 59.9414 56.4844C59.5988 57.5871 59.2463 58.717 58.877 59.8252C58.1306 62.0643 57.3458 64.1141 56.4912 65.584C56.0642 66.3184 55.6628 66.8309 55.3037 67.1455C54.9553 67.4507 54.7295 67.5 54.5996 67.5C52.3439 67.4999 51.1703 66.674 50.4316 65.5508C49.6073 64.2972 49.2213 62.5106 49.0059 60.4443C48.8999 59.4278 48.8408 58.4174 48.7705 57.4111C48.702 56.4302 48.6223 55.4408 48.4707 54.5684C48.3238 53.7231 48.0818 52.8064 47.582 52.0752C47.016 51.2471 46.142 50.7002 45 50.7002C43.858 50.7002 42.984 51.2471 42.418 52.0752C41.9182 52.8064 41.6762 53.7231 41.5293 54.5684C41.3777 55.4408 41.298 56.4302 41.2295 57.4111C41.1592 58.4174 41.1001 59.4278 40.9941 60.4443C40.7787 62.5106 40.3927 64.2972 39.5684 65.5508C38.8297 66.674 37.6561 67.4999 35.4004 67.5C35.2705 67.5 35.0447 67.4507 34.6963 67.1455C34.3372 66.8309 33.9358 66.3184 33.5088 65.584C32.6542 64.1141 31.8694 62.0643 31.123 59.8252C30.7537 58.717 30.4012 57.5871 30.0586 56.4844C29.718 55.3878 29.3852 54.3118 29.0605 53.3379C28.7371 52.3676 28.4097 51.4613 28.0762 50.707C27.7619 49.9964 27.3703 49.2492 26.8604 48.7393C25.9104 47.7891 24.8 45.7242 23.9209 43.1191C23.0575 40.5604 22.5001 37.7264 22.5 35.4004C22.5 32.1152 23.6004 28.8431 25.4844 26.4209C27.3557 24.015 29.9464 22.5 33 22.5C36.3821 22.5 37.993 23.0529 39.3428 23.5928C40.8156 24.1819 42.271 24.9004 45 24.9004C47.729 24.9004 49.1844 24.1819 50.6572 23.5928C52.007 23.0529 53.6179 22.5 57 22.5Z"
                                        stroke="#26B5D9" stroke-width="3" />
                                    <path
                                        d="M57 22.5C60.0536 22.5 62.6443 24.015 64.5156 26.4209C66.3996 28.8431 67.5 32.1152 67.5 35.4004C67.4999 37.7264 66.9425 40.5604 66.0791 43.1191C65.2 45.7242 64.0896 47.7891 63.1396 48.7393C62.6297 49.2492 62.2381 49.9964 61.9238 50.707C61.5903 51.4613 61.2629 52.3676 60.9395 53.3379C60.6148 54.3118 60.282 55.3878 59.9414 56.4844C59.5988 57.5871 59.2463 58.717 58.877 59.8252C58.1306 62.0643 57.3458 64.1141 56.4912 65.584C56.0642 66.3184 55.6628 66.8309 55.3037 67.1455C54.9553 67.4507 54.7295 67.5 54.5996 67.5C52.3439 67.4999 51.1703 66.674 50.4316 65.5508C49.6073 64.2972 49.2213 62.5106 49.0059 60.4443C48.8999 59.4278 48.8408 58.4174 48.7705 57.4111C48.702 56.4302 48.6223 55.4408 48.4707 54.5684C48.3238 53.7231 48.0818 52.8064 47.582 52.0752C47.016 51.2471 46.142 50.7002 45 50.7002C43.858 50.7002 42.984 51.2471 42.418 52.0752C41.9182 52.8064 41.6762 53.7231 41.5293 54.5684C41.3777 55.4408 41.298 56.4302 41.2295 57.4111C41.1592 58.4174 41.1001 59.4278 40.9941 60.4443C40.7787 62.5106 40.3927 64.2972 39.5684 65.5508C38.8297 66.674 37.6561 67.4999 35.4004 67.5C35.2705 67.5 35.0447 67.4507 34.6963 67.1455C34.3372 66.8309 33.9358 66.3184 33.5088 65.584C32.6542 64.1141 31.8694 62.0643 31.123 59.8252C30.7537 58.717 30.4012 57.5871 30.0586 56.4844C29.718 55.3878 29.3852 54.3118 29.0605 53.3379C28.7371 52.3676 28.4097 51.4613 28.0762 50.707C27.7619 49.9964 27.3703 49.2492 26.8604 48.7393C25.9104 47.7891 24.8 45.7242 23.9209 43.1191C23.0575 40.5604 22.5001 37.7264 22.5 35.4004C22.5 32.1152 23.6004 28.8431 25.4844 26.4209C27.3557 24.015 29.9464 22.5 33 22.5C36.3821 22.5 37.993 23.0529 39.3428 23.5928C40.8156 24.1819 42.271 24.9004 45 24.9004C47.729 24.9004 49.1844 24.1819 50.6572 23.5928C52.007 23.0529 53.6179 22.5 57 22.5Z"
                                        stroke="#176D82" stroke-width="3" />
                                    <path
                                        d="M52.8662 36.3242C53.1321 37.0026 53.6813 37.531 54.3691 37.7715L56.4531 38.5L54.3691 39.2285C53.6813 39.469 53.1321 39.9974 52.8662 40.6758L52 42.8867L51.1338 40.6758L51.0205 40.4287C50.7279 39.8698 50.2326 39.439 49.6309 39.2285L47.5459 38.5L49.6309 37.7715C50.3187 37.531 50.8679 37.0026 51.1338 36.3242L52 34.1123L52.8662 36.3242Z"
                                        fill="#176D82" stroke="#176D82" stroke-width="3" />
                                </svg>