<svg width="90" height="90" viewBox="0 0 90 90" fill="none" xmlns="http://www.w3.org/2000/svg">
<path d="M45 1.5C69.0244 1.5 88.5 20.9756 88.5 45C88.5 69.0244 69.0244 88.5 45 88.5C20.9756 88.5 1.5 69.0244 1.5 45C1.5 20.9756 20.9756 1.5 45 1.5Z" fill="#26B5D9" stroke="#176D82" stroke-width="3"/>
<path d="M38.2949 43.5H50.2441C50.5439 43.5 50.776 43.762 50.7402 44.0596L47.7236 69.0596C47.6933 69.3107 47.4795 69.5 47.2266 69.5H41.7432C41.4934 69.5 41.2822 69.3157 41.248 69.0684L37.7998 44.0684C37.7635 43.8055 37.9373 43.5671 38.1846 43.5117L38.2949 43.5Z" fill="white" stroke="#176D82" stroke-width="3" stroke-linejoin="round"/>
<path d="M57 20.5C60.0536 20.5 62.6443 22.015 64.5156 24.4209C66.3996 26.8431 67.5 30.1152 67.5 33.4004C67.4999 35.7264 66.9425 38.5604 66.0791 41.1191C65.2 43.7242 64.0896 45.7891 63.1396 46.7393C62.7816 47.0973 62.1524 47.4536 61.1924 47.7568C60.2502 48.0544 59.1041 48.2651 57.8311 48.4092C55.28 48.698 52.4165 48.7002 50 48.7002H44.9551C44.9244 48.7001 44.8779 48.6995 44.8174 48.6992C44.6963 48.6986 44.5177 48.6976 44.2891 48.6953C43.8306 48.6907 43.1709 48.6817 42.3721 48.6631C40.7729 48.6259 38.6207 48.5514 36.3994 48.4033C34.1703 48.2547 31.9074 48.0336 30.0732 47.71C29.1542 47.5478 28.3801 47.3663 27.7881 47.1689C27.4937 47.0708 27.2668 46.9766 27.1006 46.8906C27.0187 46.8483 26.9585 46.8118 26.917 46.7832C26.8763 46.7552 26.8604 46.7392 26.8604 46.7393C25.9104 45.7891 24.8 43.7242 23.9209 41.1191C23.0575 38.5604 22.5001 35.7264 22.5 33.4004C22.5 30.1152 23.6004 26.8431 25.4844 24.4209C27.3557 22.015 29.9464 20.5 33 20.5C36.3821 20.5 37.993 21.0529 39.3428 21.5928C40.8156 22.1819 42.271 22.9004 45 22.9004C47.729 22.9004 49.1844 22.1819 50.6572 21.5928C52.007 21.0529 53.6179 20.5 57 20.5Z" fill="white" stroke="#176D82" stroke-width="3"/>
<line x1="36.4285" y1="53.2556" x2="51.0298" y2="56.6912" stroke="#176D82" stroke-width="2" stroke-linecap="round"/>
<line x1="36.4285" y1="58.1492" x2="51.0298" y2="61.5848" stroke="#176D82" stroke-width="2" stroke-linecap="round"/>
<line x1="36.4285" y1="63.0427" x2="51.0298" y2="66.4783" stroke="#176D82" stroke-width="2" stroke-linecap="round"/>
<path d="M33.4523 28C30.1661 29 29.6662 33 30.1662 34.5" stroke="#176D82" stroke-width="3" stroke-linecap="round"/>
</svg>
