<svg width="48" height="48" viewBox="0 0 48 48" fill="none" xmlns="http://www.w3.org/2000/svg">
<path d="M11.8575 0C4.743 0 0 7.1145 0 14.229C0 19.2329 2.3715 26.0865 4.743 28.458C7.1145 30.8295 9.486 47.43 14.229 47.43C24.9956 47.43 18.972 30.8295 23.715 30.8295C28.458 30.8295 22.4344 47.43 33.201 47.43C37.944 47.43 40.3155 30.8295 42.687 28.458C45.0585 26.0865 47.43 19.2329 47.43 14.229C47.43 7.1145 42.687 0 35.5725 0C28.458 0 28.458 2.3715 23.715 2.3715C18.972 2.3715 18.972 0 11.8575 0Z" fill="#26B5D9"/>
<path d="M26.8505 13.9963C26.8742 13.8999 26.9215 13.8074 26.9959 13.7393C27.0702 13.6711 27.1641 13.6328 27.2609 13.6328C27.3576 13.6328 27.4516 13.6711 27.5259 13.7393C27.6002 13.8074 27.6476 13.8999 27.6713 13.9963C27.6713 13.9963 27.6713 13.9963 27.6713 13.9963C27.7514 14.3494 27.8163 14.6783 27.8618 15.0383C28.4931 18.0665 26.4374 22.5067 22.5204 23.1058C18.8317 23.7902 15.5167 21.9293 13.5293 19.5083C13.3027 19.2332 13.0977 18.955 12.9004 18.6626C12.8458 18.5797 12.8102 18.4821 12.8107 18.3813C12.8112 18.2805 12.847 18.1855 12.9127 18.1145C12.9785 18.0436 13.0705 18.0007 13.171 17.9925C13.2715 17.9843 13.3715 18.0125 13.4583 18.0606C13.4583 18.0606 13.4583 18.0606 13.4583 18.0606C13.7508 18.222 14.0372 18.3683 14.3305 18.5114C16.9324 19.7667 19.6516 20.3766 21.883 19.9374C24.084 19.5547 25.7439 17.7751 26.5866 14.9414C26.6827 14.6277 26.7699 14.3294 26.8505 13.9963Z" fill="white"/>
</svg>
