<svg width="271" height="45" viewBox="0 0 271 45" fill="none" xmlns="http://www.w3.org/2000/svg">
<path d="M10.0851 1.71045C4.03403 1.71045 0 7.79466 0 13.8789C0 18.1581 2.01701 24.0192 4.03403 26.0473C6.05104 28.0754 8.06805 42.2719 12.1021 42.2719C21.2593 42.2719 16.1361 28.0754 20.1701 28.0754C24.2042 28.0754 19.0809 42.2719 28.2382 42.2719C32.2722 42.2719 34.2892 28.0754 36.3062 26.0473C38.3233 24.0192 40.3403 18.1581 40.3403 13.8789C40.3403 7.79466 36.3062 1.71045 30.2552 1.71045C24.2042 1.71045 24.2042 3.73852 20.1701 3.73852C16.1361 3.73852 16.1361 1.71045 10.0851 1.71045Z" fill="#26B5D9"/>
<path d="M22.8368 13.679C22.857 13.5967 22.8973 13.5179 22.9607 13.4599C23.024 13.4018 23.104 13.3694 23.1864 13.3696C23.2688 13.3698 23.3488 13.4027 23.4121 13.4611C23.4755 13.5195 23.5158 13.5985 23.536 13.6809C23.536 13.6809 23.536 13.6809 23.536 13.6809C23.6042 13.9824 23.6596 14.2634 23.6985 14.5707C24.233 17.1554 22.5099 20.9392 19.1748 21.4649C16.0327 22.0588 13.2004 20.4643 11.5079 18.3929C11.3148 18.1576 11.1402 17.9196 10.9721 17.6695C10.9256 17.5985 10.8953 17.5152 10.8958 17.429C10.8962 17.3429 10.9266 17.262 10.9827 17.2015C11.0387 17.1411 11.117 17.1047 11.2026 17.098C11.2883 17.0912 11.3734 17.1154 11.4474 17.1567C11.4474 17.1567 11.4474 17.1567 11.4474 17.1567C11.6965 17.2952 11.9403 17.4207 12.1901 17.5434C14.4058 18.6203 16.7219 19.1409 18.6172 18.7609C20.4869 18.4298 21.8955 16.9019 22.6122 14.4854C22.6939 14.2179 22.7681 13.9632 22.8368 13.679Z" fill="white"/>
<path d="M63.6121 34.5458C61.4515 34.5458 59.6093 34.1819 58.0856 33.4542C56.5846 32.7264 55.3678 31.7598 54.4354 30.5545C53.5029 29.3264 52.8207 27.9732 52.3885 26.4949C51.9564 25.0166 51.7404 23.5384 51.7404 22.0601C51.7404 20.6273 51.9792 19.1831 52.4568 17.7276C52.9571 16.2493 53.6962 14.8962 54.6742 13.6681C55.6749 12.4399 56.9257 11.4506 58.4267 10.7001C59.9277 9.94962 61.6903 9.57437 63.7144 9.57437C65.784 9.57437 67.5693 9.94962 69.0703 10.7001C70.5713 11.4506 71.7994 12.4513 72.7546 13.7022C73.7098 14.9303 74.4148 16.2721 74.8697 17.7276C75.3473 19.1831 75.5861 20.6273 75.5861 22.0601C75.5861 23.4701 75.3359 24.9029 74.8356 26.3585C74.358 27.814 73.6188 29.1672 72.6181 30.418C71.6402 31.6461 70.4007 32.6468 68.8997 33.4201C67.3987 34.1706 65.6361 34.5458 63.6121 34.5458ZM63.9873 32.0555C65.1699 32.0555 66.1592 31.7712 66.9552 31.2027C67.7512 30.6113 68.388 29.8495 68.8656 28.917C69.3432 27.9846 69.6843 26.9725 69.889 25.8809C70.0937 24.7665 70.1961 23.6862 70.1961 22.64C70.1961 21.0708 70.0596 19.638 69.7867 18.3417C69.5138 17.0453 69.093 15.9309 68.5245 14.9985C67.9559 14.0433 67.2281 13.3155 66.3412 12.8152C65.477 12.2921 64.4535 12.042 63.2709 12.0647C62.111 12.0874 61.1331 12.4058 60.3371 13.0199C59.5411 13.6112 58.9043 14.3844 58.4267 15.3396C57.9491 16.2721 57.608 17.2955 57.4033 18.4099C57.1986 19.5243 57.0963 20.6046 57.0963 21.6507C57.0963 22.7196 57.21 23.8568 57.4374 25.0621C57.6876 26.2675 58.0742 27.4046 58.5973 28.4735C59.1204 29.5424 59.8254 30.4067 60.7124 31.0662C61.5993 31.7257 62.691 32.0555 63.9873 32.0555ZM78.0708 31.7485C78.5939 31.7257 79.026 31.6575 79.3671 31.5438C79.731 31.4301 80.0039 31.1685 80.1859 30.7592C80.3905 30.3498 80.4929 29.6903 80.4929 28.7806V15.7149C80.4929 15.1008 80.5043 14.5095 80.527 13.941C80.5725 13.3724 80.6066 12.9403 80.6293 12.6446C80.2655 12.6674 79.8106 12.6901 79.2648 12.7129C78.719 12.7129 78.321 12.7242 78.0708 12.747V10.1202L87.998 10.0861C90.2495 10.0861 92.194 10.4272 93.8315 11.1095C95.4917 11.769 96.8449 12.6674 97.891 13.8045C98.9599 14.9416 99.7559 16.2152 100.279 17.6253C100.802 19.0126 101.064 20.4113 101.064 21.8213C101.064 23.2086 100.813 24.6186 100.313 26.0514C99.8355 27.4842 99.0737 28.8033 98.0275 30.0087C96.9813 31.1913 95.6168 32.1578 93.9338 32.9084C92.2508 33.6361 90.2154 34 87.8274 34H78.0708V31.7485ZM85.4394 28.4053C85.4394 29.0194 85.428 29.6107 85.4053 30.1792C85.3826 30.7478 85.3484 31.1799 85.303 31.4756C85.5304 31.4528 85.8374 31.4528 86.224 31.4756C86.6334 31.4756 87.0541 31.4869 87.4863 31.5097C87.9184 31.5097 88.2709 31.5097 88.5438 31.5097C89.7946 31.5097 90.8635 31.2595 91.7505 30.7592C92.6602 30.2588 93.3994 29.5879 93.9679 28.7464C94.5592 27.8822 94.9913 26.9157 95.2643 25.8468C95.5372 24.7778 95.6736 23.6748 95.6736 22.5377C95.6736 20.2179 95.3552 18.3189 94.7184 16.8407C94.0816 15.3624 93.1833 14.2594 92.0234 13.5316C90.8863 12.8038 89.5217 12.4172 87.9297 12.3717C87.3839 12.349 86.9177 12.4058 86.5311 12.5423C86.1672 12.656 85.8943 12.9175 85.7123 13.3269C85.5304 13.7363 85.4394 14.3844 85.4394 15.2714V28.4053ZM115.316 34.5458C113.156 34.5458 111.313 34.1819 109.79 33.4542C108.289 32.7264 107.072 31.7598 106.139 30.5545C105.207 29.3264 104.525 27.9732 104.093 26.4949C103.66 25.0166 103.444 23.5384 103.444 22.0601C103.444 20.6273 103.683 19.1831 104.161 17.7276C104.661 16.2493 105.4 14.8962 106.378 13.6681C107.379 12.4399 108.63 11.4506 110.131 10.7001C111.632 9.94962 113.394 9.57437 115.418 9.57437C117.488 9.57437 119.273 9.94962 120.774 10.7001C122.275 11.4506 123.503 12.4513 124.459 13.7022C125.414 14.9303 126.119 16.2721 126.574 17.7276C127.051 19.1831 127.29 20.6273 127.29 22.0601C127.29 23.4701 127.04 24.9029 126.54 26.3585C126.062 27.814 125.323 29.1672 124.322 30.418C123.344 31.6461 122.105 32.6468 120.604 33.4201C119.103 34.1706 117.34 34.5458 115.316 34.5458ZM115.691 32.0555C116.874 32.0555 117.863 31.7712 118.659 31.2027C119.455 30.6113 120.092 29.8495 120.57 28.917C121.047 27.9846 121.388 26.9725 121.593 25.8809C121.798 24.7665 121.9 23.6862 121.9 22.64C121.9 21.0708 121.764 19.638 121.491 18.3417C121.218 17.0453 120.797 15.9309 120.229 14.9985C119.66 14.0433 118.932 13.3155 118.045 12.8152C117.181 12.2921 116.158 12.042 114.975 12.0647C113.815 12.0874 112.837 12.4058 112.041 13.0199C111.245 13.6112 110.608 14.3844 110.131 15.3396C109.653 16.2721 109.312 17.2955 109.107 18.4099C108.903 19.5243 108.8 20.6046 108.8 21.6507C108.8 22.7196 108.914 23.8568 109.141 25.0621C109.392 26.2675 109.778 27.4046 110.301 28.4735C110.824 29.5424 111.529 30.4067 112.416 31.0662C113.303 31.7257 114.395 32.0555 115.691 32.0555ZM147.923 34.3411L137.007 20.3885C136.711 20.0019 136.404 19.5925 136.086 19.1604C135.768 18.7283 135.449 18.2848 135.131 17.83H135.097L135.165 28.4053C135.165 29.0194 135.153 29.6107 135.131 30.1792C135.108 30.7478 135.074 31.1799 135.028 31.4756C135.392 31.4301 135.847 31.4073 136.393 31.4073C136.962 31.3846 137.36 31.3732 137.587 31.3732V34H129.809V31.7485C130.332 31.7257 130.764 31.6575 131.105 31.5438C131.469 31.4301 131.742 31.1685 131.924 30.7592C132.129 30.3498 132.231 29.6903 132.231 28.7806L132.163 15.7149C132.163 15.1008 132.174 14.5095 132.197 13.941C132.22 13.3724 132.254 12.9403 132.299 12.6446C131.935 12.6674 131.469 12.6901 130.901 12.7129C130.355 12.7129 129.957 12.7242 129.707 12.747V10.1202H135.063L145.501 23.2882C146.07 24.016 146.536 24.6414 146.9 25.1645C147.287 25.6876 147.616 26.1424 147.889 26.529H147.923V15.7149C147.923 15.1008 147.935 14.5095 147.958 13.941C147.98 13.3724 148.003 12.9403 148.026 12.6446C147.662 12.6674 147.207 12.6901 146.661 12.7129C146.115 12.7129 145.717 12.7242 145.467 12.747V10.1202H153.245V12.3717C152.745 12.3945 152.313 12.4627 151.949 12.5764C151.585 12.6901 151.301 12.9517 151.096 13.361C150.914 13.7477 150.823 14.4072 150.823 15.3396V34.3411H147.923ZM173.797 17.83C173.797 16.6019 173.626 15.5898 173.285 14.7938C172.944 13.9751 172.455 13.3724 171.818 12.9858C171.204 12.5764 170.465 12.3831 169.601 12.4058H167.963V28.4053C167.963 29.0194 167.952 29.6107 167.929 30.1792C167.906 30.7478 167.872 31.1799 167.827 31.4756C168.214 31.4301 168.702 31.4073 169.294 31.4073C169.908 31.3846 170.329 31.3732 170.556 31.3732V34H160.595V31.7485C161.118 31.7257 161.55 31.6575 161.891 31.5438C162.255 31.4301 162.528 31.1685 162.71 30.7592C162.914 30.3498 163.017 29.6903 163.017 28.7806V12.4399H161.448C160.151 12.4627 159.128 12.9062 158.377 13.7704C157.627 14.6346 157.252 15.9878 157.252 17.83H155L155.171 10.1202H175.844L176.048 17.83H173.797ZM189.707 34.5458C187.547 34.5458 185.705 34.1819 184.181 33.4542C182.68 32.7264 181.463 31.7598 180.531 30.5545C179.598 29.3264 178.916 27.9732 178.484 26.4949C178.052 25.0166 177.836 23.5384 177.836 22.0601C177.836 20.6273 178.074 19.1831 178.552 17.7276C179.052 16.2493 179.791 14.8962 180.769 13.6681C181.77 12.4399 183.021 11.4506 184.522 10.7001C186.023 9.94962 187.786 9.57437 189.81 9.57437C191.879 9.57437 193.665 9.94962 195.166 10.7001C196.667 11.4506 197.895 12.4513 198.85 13.7022C199.805 14.9303 200.51 16.2721 200.965 17.7276C201.443 19.1831 201.681 20.6273 201.681 22.0601C201.681 23.4701 201.431 24.9029 200.931 26.3585C200.453 27.814 199.714 29.1672 198.713 30.418C197.735 31.6461 196.496 32.6468 194.995 33.4201C193.494 34.1706 191.731 34.5458 189.707 34.5458ZM190.083 32.0555C191.265 32.0555 192.254 31.7712 193.05 31.2027C193.846 30.6113 194.483 29.8495 194.961 28.917C195.438 27.9846 195.78 26.9725 195.984 25.8809C196.189 24.7665 196.291 23.6862 196.291 22.64C196.291 21.0708 196.155 19.638 195.882 18.3417C195.609 17.0453 195.188 15.9309 194.62 14.9985C194.051 14.0433 193.323 13.3155 192.436 12.8152C191.572 12.2921 190.549 12.042 189.366 12.0647C188.206 12.0874 187.228 12.4058 186.432 13.0199C185.636 13.6112 185 14.3844 184.522 15.3396C184.044 16.2721 183.703 17.2955 183.499 18.4099C183.294 19.5243 183.192 20.6046 183.192 21.6507C183.192 22.7196 183.305 23.8568 183.533 25.0621C183.783 26.2675 184.169 27.4046 184.693 28.4735C185.216 29.5424 185.921 30.4067 186.808 31.0662C187.695 31.7257 188.786 32.0555 190.083 32.0555Z" fill="#05191E"/>
<path d="M204.225 34V31.4414C205.93 28.8488 207.625 26.2561 209.308 23.6635C211.013 21.0708 212.719 18.4781 214.425 15.8855C214.857 15.2259 215.255 14.6346 215.619 14.1115C215.983 13.5657 216.381 13.0426 216.813 12.5423L210.979 12.3376C209.728 12.2921 208.694 12.6674 207.875 13.4634C207.056 14.2366 206.647 15.5443 206.647 17.3865H204.395L204.6 10.1202H221.964V12.6787L212.139 27.5525C211.662 28.2575 211.184 28.9625 210.706 29.6675C210.229 30.3498 209.728 30.998 209.205 31.612L215.448 31.7485C216.722 31.7712 217.757 31.4073 218.553 30.6568C219.349 29.8836 219.747 28.5645 219.747 26.6996H221.998L221.793 34H204.225ZM236.275 34.5458C233.819 34.5458 231.727 34.0114 229.998 32.9425C228.27 31.8508 226.951 30.3839 226.041 28.5418C225.131 26.6996 224.677 24.6528 224.677 22.4012C224.677 20.8547 224.915 19.3196 225.393 17.7958C225.893 16.2721 226.632 14.8962 227.61 13.6681C228.588 12.4172 229.816 11.4279 231.295 10.7001C232.796 9.94962 234.535 9.57437 236.514 9.57437C237.128 9.57437 237.822 9.6426 238.595 9.77905C239.368 9.89277 240.142 10.0747 240.915 10.3249C241.711 10.575 242.416 10.8821 243.03 11.246L242.893 9.81317H245.52V17.7617H243.303C243.098 16.4881 242.7 15.4306 242.109 14.5891C241.517 13.7477 240.778 13.1109 239.891 12.6787C239.004 12.2466 238.026 12.0306 236.958 12.0306C235.775 12.0306 234.74 12.3035 233.853 12.8493C232.989 13.3951 232.273 14.1229 231.704 15.0326C231.135 15.9423 230.703 16.9771 230.408 18.137C230.135 19.2969 229.998 20.4909 229.998 21.719C229.998 23.6748 230.271 25.4146 230.817 26.9384C231.363 28.4622 232.159 29.6675 233.205 30.5545C234.274 31.4187 235.582 31.8508 237.128 31.8508C237.56 31.8508 238.072 31.8167 238.663 31.7485C239.255 31.6802 239.846 31.5779 240.437 31.4414C241.029 31.305 241.529 31.1344 241.938 30.9297V27.7571C241.938 27.1431 241.95 26.5518 241.972 25.9832C242.018 25.4146 242.052 24.9825 242.075 24.6869C241.711 24.7096 241.256 24.7324 240.71 24.7551C240.164 24.7551 239.766 24.7665 239.516 24.7892V22.1624H248.59V24.414C248.204 24.4367 247.863 24.4822 247.567 24.5504C247.294 24.6186 247.055 24.7551 246.851 24.9598C246.669 25.1417 246.532 25.426 246.441 25.8126C246.35 26.1993 246.305 26.7223 246.305 27.3819V32.8401H245.486C244.827 32.8401 244.167 32.9311 243.507 33.113C242.848 33.295 242.143 33.4997 241.392 33.7271C240.687 33.9318 239.914 34.1137 239.073 34.2729C238.231 34.4549 237.299 34.5458 236.275 34.5458ZM250.532 34V31.4414C252.237 28.8488 253.932 26.2561 255.615 23.6635C257.32 21.0708 259.026 18.4781 260.732 15.8855C261.164 15.2259 261.562 14.6346 261.926 14.1115C262.29 13.5657 262.688 13.0426 263.12 12.5423L257.286 12.3376C256.035 12.2921 255.001 12.6674 254.182 13.4634C253.363 14.2366 252.954 15.5443 252.954 17.3865H250.702L250.907 10.1202H268.271V12.6787L258.446 27.5525C257.969 28.2575 257.491 28.9625 257.013 29.6675C256.536 30.3498 256.035 30.998 255.512 31.612L261.755 31.7485C263.029 31.7712 264.064 31.4073 264.86 30.6568C265.656 29.8836 266.054 28.5645 266.054 26.6996H268.305L268.1 34H250.532Z" fill="#26B5D9"/>
<path d="M56.3799 43.2712C56.0955 43.2712 55.865 43.5017 55.865 43.7861C55.865 44.0705 56.0955 44.3011 56.3799 44.3011V43.7861V43.2712ZM56.3799 43.7861V44.3011H269.232V43.7861V43.2712H56.3799V43.7861Z" fill="#26B5D9"/>
</svg>
