<svg width="280" height="51" viewBox="0 0 280 51" fill="none" xmlns="http://www.w3.org/2000/svg">
<path d="M11.8575 2C4.743 2 0 9.1145 0 16.229C0 21.2329 2.3715 28.0865 4.743 30.458C7.1145 32.8295 9.486 49.43 14.229 49.43C24.9956 49.43 18.972 32.8295 23.715 32.8295C28.458 32.8295 22.4344 49.43 33.201 49.43C37.944 49.43 40.3155 32.8295 42.687 30.458C45.0585 28.0865 47.43 21.2329 47.43 16.229C47.43 9.1145 42.687 2 35.5725 2C28.458 2 28.458 4.3715 23.715 4.3715C18.972 4.3715 18.972 2 11.8575 2Z" fill="#26B5D9"/>
<path d="M26.8505 15.9963C26.8742 15.8999 26.9215 15.8074 26.9959 15.7393C27.0702 15.6711 27.1641 15.6328 27.2609 15.6328C27.3576 15.6328 27.4516 15.6711 27.5259 15.7393C27.6002 15.8074 27.6476 15.8999 27.6713 15.9963C27.6713 15.9963 27.6713 15.9963 27.6713 15.9963C27.7514 16.3494 27.8163 16.6783 27.8618 17.0383C28.4931 20.0665 26.4374 24.5067 22.5204 25.1058C18.8317 25.7902 15.5167 23.9293 13.5293 21.5083C13.3027 21.2332 13.0977 20.955 12.9004 20.6626C12.8458 20.5797 12.8102 20.4821 12.8107 20.3813C12.8112 20.2805 12.847 20.1855 12.9127 20.1145C12.9785 20.0436 13.0705 20.0007 13.171 19.9925C13.2715 19.9843 13.3715 20.0125 13.4583 20.0606C13.4583 20.0606 13.4583 20.0606 13.4583 20.0606C13.7508 20.222 14.0372 20.3683 14.3305 20.5114C16.9324 21.7667 19.6516 22.3766 21.883 21.9374C24.084 21.5547 25.7439 19.7751 26.5866 16.9414C26.6827 16.6277 26.7699 16.3294 26.8505 15.9963Z" fill="white"/>
<path d="M74.7499 40.64C72.2166 40.64 70.0566 40.2133 68.2699 39.36C66.5099 38.5067 65.0833 37.3733 63.9899 35.96C62.8966 34.52 62.0966 32.9333 61.5899 31.2C61.0833 29.4667 60.8299 27.7333 60.8299 26C60.8299 24.32 61.1099 22.6267 61.6699 20.92C62.2566 19.1867 63.1233 17.6 64.2699 16.16C65.4433 14.72 66.9099 13.56 68.6699 12.68C70.4299 11.8 72.4966 11.36 74.8699 11.36C77.2966 11.36 79.3899 11.8 81.1499 12.68C82.9099 13.56 84.3499 14.7333 85.4699 16.2C86.5899 17.64 87.4166 19.2133 87.9499 20.92C88.5099 22.6267 88.7899 24.32 88.7899 26C88.7899 27.6533 88.4966 29.3333 87.9099 31.04C87.3499 32.7467 86.4833 34.3333 85.3099 35.8C84.1633 37.24 82.7099 38.4133 80.9499 39.32C79.1899 40.2 77.1233 40.64 74.7499 40.64ZM75.1899 37.72C76.5766 37.72 77.7366 37.3867 78.6699 36.72C79.6033 36.0267 80.3499 35.1333 80.9099 34.04C81.4699 32.9467 81.8699 31.76 82.1099 30.48C82.3499 29.1733 82.4699 27.9067 82.4699 26.68C82.4699 24.84 82.3099 23.16 81.9899 21.64C81.6699 20.12 81.1766 18.8133 80.5099 17.72C79.8433 16.6 78.9899 15.7467 77.9499 15.16C76.9366 14.5467 75.7366 14.2533 74.3499 14.28C72.9899 14.3067 71.8433 14.68 70.9099 15.4C69.9766 16.0933 69.2299 17 68.6699 18.12C68.1099 19.2133 67.7099 20.4133 67.4699 21.72C67.2299 23.0267 67.1099 24.2933 67.1099 25.52C67.1099 26.7733 67.2433 28.1067 67.5099 29.52C67.8033 30.9333 68.2566 32.2667 68.8699 33.52C69.4833 34.7733 70.3099 35.7867 71.3499 36.56C72.3899 37.3333 73.6699 37.72 75.1899 37.72ZM99.5321 40.64C97.9321 40.64 96.5188 40.2267 95.2921 39.4C94.0921 38.5733 93.1455 37.4 92.4521 35.88C91.7855 34.36 91.4521 32.5733 91.4521 30.52C91.4521 28.36 91.8655 26.44 92.6921 24.76C93.5188 23.08 94.6788 21.76 96.1721 20.8C97.6655 19.84 99.3988 19.36 101.372 19.36C102.092 19.36 102.732 19.44 103.292 19.6C103.879 19.7333 104.425 19.8933 104.932 20.08V17.44C104.932 17.0667 104.945 16.5333 104.972 15.84C104.999 15.1467 105.039 14.5067 105.092 13.92C104.665 13.9467 104.159 13.9733 103.572 14C102.985 14.0267 102.545 14.04 102.252 14.04V11C103.505 11 104.545 10.9333 105.372 10.8C106.225 10.6667 106.892 10.5067 107.372 10.32C107.879 10.1333 108.225 9.96 108.412 9.8H110.572V33.56C110.572 33.9333 110.559 34.4667 110.532 35.16C110.505 35.8267 110.465 36.4667 110.412 37.08C110.865 37.0267 111.345 37 111.852 37C112.359 36.9733 112.745 36.96 113.012 36.96V40H105.412C105.385 39.7067 105.345 39.4 105.292 39.08C105.265 38.76 105.225 38.4533 105.172 38.16C104.292 39.0667 103.385 39.7067 102.452 40.08C101.519 40.4533 100.545 40.64 99.5321 40.64ZM101.612 37C102.305 37 102.945 36.8267 103.532 36.48C104.119 36.1067 104.585 35.64 104.932 35.08C104.932 34.68 104.932 34.28 104.932 33.88C104.932 33.48 104.932 33.08 104.932 32.68V23.08C104.665 22.8667 104.265 22.6933 103.732 22.56C103.199 22.4 102.652 22.32 102.092 22.32C100.865 22.3467 99.9055 22.7333 99.2121 23.48C98.5188 24.2267 98.0255 25.1733 97.7321 26.32C97.4655 27.4667 97.3321 28.6667 97.3321 29.92C97.3321 31.04 97.4655 32.1467 97.7321 33.24C98.0255 34.3333 98.4788 35.24 99.0921 35.96C99.7321 36.6533 100.572 37 101.612 37ZM125.44 40.64C123.52 40.64 121.787 40.2267 120.24 39.4C118.694 38.5733 117.467 37.4 116.56 35.88C115.68 34.3333 115.24 32.52 115.24 30.44C115.24 28.2267 115.694 26.2933 116.6 24.64C117.534 22.96 118.76 21.6667 120.28 20.76C121.827 19.8267 123.507 19.36 125.32 19.36C127.24 19.36 128.96 19.7733 130.48 20.6C132 21.4267 133.2 22.6133 134.08 24.16C134.96 25.68 135.4 27.5067 135.4 29.64C135.4 31.88 134.974 33.8267 134.12 35.48C133.267 37.1333 132.094 38.4133 130.6 39.32C129.107 40.2 127.387 40.64 125.44 40.64ZM125.6 37.8C126.667 37.7733 127.467 37.4 128 36.68C128.56 35.96 128.947 35.0533 129.16 33.96C129.374 32.8667 129.48 31.76 129.48 30.64C129.48 29.6533 129.4 28.6533 129.24 27.64C129.107 26.6267 128.88 25.7067 128.56 24.88C128.24 24.0533 127.8 23.3867 127.24 22.88C126.707 22.3733 126.04 22.1333 125.24 22.16C124.2 22.1867 123.374 22.56 122.76 23.28C122.174 24 121.747 24.9067 121.48 26C121.24 27.0667 121.12 28.1867 121.12 29.36C121.12 30.72 121.267 32.0533 121.56 33.36C121.854 34.6667 122.32 35.7467 122.96 36.6C123.627 37.4267 124.507 37.8267 125.6 37.8ZM138.296 40V37.4C139.043 37.4 139.576 37.2533 139.896 36.96C140.216 36.6667 140.416 36.2533 140.496 35.72C140.603 35.16 140.656 34.5333 140.656 33.84V27.12C140.656 26.64 140.67 26.1067 140.696 25.52C140.723 24.9067 140.763 24.3067 140.816 23.72C140.39 23.7467 139.883 23.7733 139.296 23.8C138.736 23.8 138.31 23.8133 138.016 23.84V20.8C139.243 20.8 140.283 20.7333 141.136 20.6C141.99 20.4667 142.656 20.3067 143.136 20.12C143.643 19.9333 143.99 19.76 144.176 19.6H146.136C146.19 19.9467 146.216 20.2 146.216 20.36C146.216 20.52 146.216 20.68 146.216 20.84C146.243 20.9733 146.296 21.2267 146.376 21.6C146.91 21.1733 147.523 20.8 148.216 20.48C148.91 20.1333 149.603 19.8667 150.296 19.68C150.99 19.4667 151.603 19.36 152.136 19.36C154.59 19.36 156.323 20.0667 157.336 21.48C158.376 22.8667 158.896 25.1067 158.896 28.2V33.56C158.896 33.9333 158.883 34.4667 158.856 35.16C158.83 35.8267 158.79 36.4667 158.736 37.08C159.19 37.0267 159.67 37 160.176 37C160.683 36.9733 161.07 36.96 161.336 36.96V40H150.856V37.4C151.603 37.4 152.136 37.2533 152.456 36.96C152.803 36.6667 153.016 36.2533 153.096 35.72C153.203 35.16 153.256 34.5333 153.256 33.84L153.216 28.16C153.216 26.4267 152.963 25.1467 152.456 24.32C151.976 23.4667 151.15 23.04 149.976 23.04C149.31 23.04 148.643 23.1867 147.976 23.48C147.336 23.7733 146.79 24.12 146.336 24.52C146.336 24.8933 146.336 25.28 146.336 25.68C146.336 26.0533 146.336 26.4267 146.336 26.8V33.56C146.336 33.9333 146.323 34.4667 146.296 35.16C146.27 35.8267 146.23 36.4667 146.176 37.08C146.603 37.0267 147.07 37 147.576 37C148.11 36.9733 148.51 36.96 148.776 36.96V40H138.296ZM171.49 40.64C170.69 40.64 169.917 40.5467 169.17 40.36C168.423 40.1733 167.757 39.8267 167.17 39.32C166.583 38.7867 166.117 38.0133 165.77 37C165.423 35.9867 165.25 34.64 165.25 32.96L165.33 23.32H162.61V20C163.437 19.9733 164.237 19.6933 165.01 19.16C165.783 18.6267 166.437 17.9333 166.97 17.08C167.53 16.2267 167.903 15.3333 168.09 14.4H171.05L171.01 20H176.09V23.08L171.01 23.2L170.97 33.04C170.97 33.6533 171.023 34.2667 171.13 34.88C171.263 35.4667 171.503 35.96 171.85 36.36C172.197 36.7333 172.703 36.92 173.37 36.92C173.743 36.92 174.25 36.7867 174.89 36.52C175.557 36.2533 176.263 35.5867 177.01 34.52L178.93 36.32C178.21 37.3867 177.463 38.2133 176.69 38.8C175.917 39.3867 175.17 39.8133 174.45 40.08C173.757 40.3467 173.143 40.5067 172.61 40.56C172.077 40.6133 171.703 40.64 171.49 40.64ZM189.893 40.64C187.973 40.64 186.24 40.2267 184.693 39.4C183.147 38.5733 181.92 37.4 181.013 35.88C180.133 34.3333 179.693 32.52 179.693 30.44C179.693 28.2267 180.147 26.2933 181.053 24.64C181.987 22.96 183.213 21.6667 184.733 20.76C186.28 19.8267 187.96 19.36 189.773 19.36C191.693 19.36 193.413 19.7733 194.933 20.6C196.453 21.4267 197.653 22.6133 198.533 24.16C199.413 25.68 199.853 27.5067 199.853 29.64C199.853 31.88 199.427 33.8267 198.573 35.48C197.72 37.1333 196.547 38.4133 195.053 39.32C193.56 40.2 191.84 40.64 189.893 40.64ZM190.053 37.8C191.12 37.7733 191.92 37.4 192.453 36.68C193.013 35.96 193.4 35.0533 193.613 33.96C193.827 32.8667 193.933 31.76 193.933 30.64C193.933 29.6533 193.853 28.6533 193.693 27.64C193.56 26.6267 193.333 25.7067 193.013 24.88C192.693 24.0533 192.253 23.3867 191.693 22.88C191.16 22.3733 190.493 22.1333 189.693 22.16C188.653 22.1867 187.827 22.56 187.213 23.28C186.627 24 186.2 24.9067 185.933 26C185.693 27.0667 185.573 28.1867 185.573 29.36C185.573 30.72 185.72 32.0533 186.013 33.36C186.307 34.6667 186.773 35.7467 187.413 36.6C188.08 37.4267 188.96 37.8267 190.053 37.8Z" fill="#05191E"/>
<path d="M201.967 40V37C203.967 33.96 205.954 30.92 207.927 27.88C209.927 24.84 211.927 21.8 213.927 18.76C214.434 17.9867 214.901 17.2933 215.327 16.68C215.754 16.04 216.221 15.4267 216.727 14.84L209.887 14.6C208.421 14.5467 207.207 14.9867 206.247 15.92C205.287 16.8267 204.807 18.36 204.807 20.52H202.167L202.407 12H222.767V15L211.247 32.44C210.687 33.2667 210.127 34.0933 209.567 34.92C209.007 35.72 208.421 36.48 207.807 37.2L215.127 37.36C216.621 37.3867 217.834 36.96 218.767 36.08C219.701 35.1733 220.167 33.6267 220.167 31.44H222.807L222.567 40H201.967ZM239.548 40.64C236.668 40.64 234.215 40.0133 232.188 38.76C230.161 37.48 228.615 35.76 227.548 33.6C226.481 31.44 225.948 29.04 225.948 26.4C225.948 24.5867 226.228 22.7867 226.788 21C227.375 19.2133 228.241 17.6 229.388 16.16C230.535 14.6933 231.975 13.5333 233.708 12.68C235.468 11.8 237.508 11.36 239.828 11.36C240.548 11.36 241.361 11.44 242.268 11.6C243.175 11.7333 244.081 11.9467 244.988 12.24C245.921 12.5333 246.748 12.8933 247.468 13.32L247.308 11.64H250.388V20.96H247.788C247.548 19.4667 247.081 18.2267 246.388 17.24C245.695 16.2533 244.828 15.5067 243.788 15C242.748 14.4933 241.601 14.24 240.348 14.24C238.961 14.24 237.748 14.56 236.708 15.2C235.695 15.84 234.855 16.6933 234.188 17.76C233.521 18.8267 233.015 20.04 232.668 21.4C232.348 22.76 232.188 24.16 232.188 25.6C232.188 27.8933 232.508 29.9333 233.148 31.72C233.788 33.5067 234.721 34.92 235.948 35.96C237.201 36.9733 238.735 37.48 240.548 37.48C241.055 37.48 241.655 37.44 242.348 37.36C243.041 37.28 243.735 37.16 244.428 37C245.121 36.84 245.708 36.64 246.188 36.4V32.68C246.188 31.96 246.201 31.2667 246.228 30.6C246.281 29.9333 246.321 29.4267 246.348 29.08C245.921 29.1067 245.388 29.1333 244.748 29.16C244.108 29.16 243.641 29.1733 243.348 29.2V26.12H253.988V28.76C253.535 28.7867 253.135 28.84 252.788 28.92C252.468 29 252.188 29.16 251.948 29.4C251.735 29.6133 251.575 29.9467 251.468 30.4C251.361 30.8533 251.308 31.4667 251.308 32.24V38.64H250.348C249.575 38.64 248.801 38.7467 248.028 38.96C247.255 39.1733 246.428 39.4133 245.548 39.68C244.721 39.92 243.815 40.1333 242.828 40.32C241.841 40.5333 240.748 40.64 239.548 40.64ZM256.264 40V37C258.264 33.96 260.251 30.92 262.224 27.88C264.224 24.84 266.224 21.8 268.224 18.76C268.731 17.9867 269.198 17.2933 269.624 16.68C270.051 16.04 270.518 15.4267 271.024 14.84L264.184 14.6C262.718 14.5467 261.504 14.9867 260.544 15.92C259.584 16.8267 259.104 18.36 259.104 20.52H256.464L256.704 12H277.064V15L265.544 32.44C264.984 33.2667 264.424 34.0933 263.864 34.92C263.304 35.72 262.718 36.48 262.104 37.2L269.424 37.36C270.918 37.3867 272.131 36.96 273.064 36.08C273.998 35.1733 274.464 33.6267 274.464 31.44H277.104L276.864 40H256.264Z" fill="#26B5D9"/>
</svg>
