<svg class="icon-card-serv" aria-hidden="true" focusable="false" viewBox="0 0 90 90"
                                    fill="none" xmlns="http://www.w3.org/2000/svg">
                                    <circle cx="45" cy="45" r="43.5" fill="#26B5D9" stroke="#176D82" stroke-width="3" />
                                    <path
                                        d="M46.6239 22C26.9472 22 20.3883 65.803 21.0442 65.9446C25.5509 66.9175 28.3942 67.1285 32.8502 65.9446C34.162 65.5961 38.7532 36.4296 46.6239 36.4296C54.4945 36.4296 57.1181 65.6155 58.4299 65.9446C62.4049 66.9419 66.0262 68.8425 68.9241 65.9446C69.58 65.2887 66.3005 22 46.6239 22Z"
                                        fill="white" stroke="#176D82" stroke-width="3" stroke-linecap="round" />
                                    <path
                                        d="M46.111 31.1826C35.894 31.1826 32.4883 57.7119 32.8288 57.7976C35.1689 58.3869 36.6453 58.5147 38.9591 57.7976C39.6402 57.5866 42.0242 39.9219 46.111 39.9219C50.1978 39.9219 51.5601 57.5983 52.2412 57.7976C54.3052 58.4017 56.1856 59.5528 57.6903 57.7976C58.0309 57.4004 56.328 31.1826 46.111 31.1826Z"
                                        fill="white" stroke="#176D82" stroke-width="3" stroke-linecap="round" />
                                </svg>