 <svg class="icon-card-serv" aria-hidden="true" focusable="false" viewBox="0 0 90 90"
                                    fill="none" xmlns="http://www.w3.org/2000/svg">
                                    <circle cx="45" cy="45" r="43.5" fill="#26B5D9" stroke="#176D82" stroke-width="3" />
                                    <path
                                        d="M55.1711 22.5C58.6681 22.5001 61.5 25.3307 61.5002 28.8184C61.5002 32.3063 58.6683 35.1376 55.1711 35.1377C51.6739 35.1377 48.842 32.3063 48.842 28.8184C48.8423 25.3306 51.6741 22.5 55.1711 22.5Z"
                                        fill="white" stroke="#176D82" stroke-width="3" />
                                    <mask id="path-3-inside-1_3047_3859" fill="white">
                                        <rect x="28" y="44.7412" width="14.7273" height="24.0992" rx="0.727273" />
                                    </mask>
                                    <rect x="28" y="44.7412" width="14.7273" height="24.0992" rx="0.727273"
                                        fill="#D9D9D9" />
                                    <rect x="28" y="44.7412" width="14.7273" height="24.0992" rx="0.727273"
                                        fill="white" />
                                    <rect x="28" y="44.7412" width="14.7273" height="24.0992" rx="0.727273"
                                        stroke="#176D82" stroke-width="7.27273"
                                        mask="url(#path-3-inside-1_3047_3859)" />
                                    <mask id="path-4-inside-2_3047_3859" fill="white">
                                        <rect x="48.2678" y="44.9004" width="14.7273" height="24.0992" rx="0.727273" />
                                    </mask>
                                    <rect x="48.2678" y="44.9004" width="14.7273" height="24.0992" rx="0.727273"
                                        fill="#D9D9D9" />
                                    <rect x="48.2678" y="44.9004" width="14.7273" height="24.0992" rx="0.727273"
                                        fill="white" />
                                    <rect x="48.2678" y="44.9004" width="14.7273" height="24.0992" rx="0.727273"
                                        stroke="#176D82" stroke-width="7.27273"
                                        mask="url(#path-4-inside-2_3047_3859)" />
                                    <line x1="55.4736" y1="45.8359" x2="55.4736" y2="35.7175" stroke="#176D82"
                                        stroke-width="4" />
                                    <path
                                        d="M35.7739 23C35.7739 23 29.0001 28.6774 29 29.3871C28.9999 30.0968 35.265 32.9355 35.7739 33.6452C36.2827 34.3548 35.7739 45 35.7739 45"
                                        stroke="#176D82" stroke-width="4.36364" stroke-linecap="round" />
                                </svg>