<svg width="24" height="24" viewBox="0 0 24 24" fill="none" xmlns="http://www.w3.org/2000/svg">
<g clip-path="url(#clip0_892_257)">
<path d="M12.7179 24.0944L12.7289 24.0924C12.7376 24.0937 12.7432 24.0997 12.7459 24.1104L12.7629 24.5374L12.7589 24.5544L12.7469 24.5704L12.6429 24.6444L12.6309 24.6484L12.6159 24.6444L12.5119 24.5704L12.5019 24.5574L12.4969 24.5374L12.5139 24.1094L12.5179 24.0994C12.5232 24.0927 12.5312 24.0911 12.5419 24.0944L12.6129 24.1294L12.6269 24.1334L12.6469 24.1294L12.7179 24.0944Z" fill="#FF0303"/>
<path d="M12.9809 23.9814L12.9939 23.9794C13.0039 23.9821 13.0106 23.9894 13.0139 24.0014L13.0479 24.6154L13.0439 24.6294C13.0372 24.6381 13.0276 24.6407 13.0149 24.6374L12.8139 24.5444L12.8059 24.5374L12.8009 24.5254L12.7829 24.0954L12.7859 24.0844L12.7959 24.0744L12.9809 23.9814Z" fill="#FF0303"/>
<path d="M12.2642 23.979C12.2692 23.9779 12.2745 23.9787 12.2789 23.9814L12.4629 24.0734L12.4729 24.0834L12.4759 24.0954L12.4589 24.5254L12.4549 24.5364L12.4449 24.5444L12.2439 24.6374L12.2289 24.6394C12.2182 24.6354 12.2126 24.6274 12.2119 24.6154L12.2459 24.0014L12.2519 23.9874C12.2548 23.9831 12.2592 23.9801 12.2642 23.979Z" fill="#FF0303"/>
<path fill-rule="evenodd" clip-rule="evenodd" d="M8.30774 16.6634C12.1527 20.5084 15.7157 20.9294 16.7617 20.9684C18.0257 21.0144 19.3157 19.9824 19.8737 18.9254C18.9837 17.8814 17.8247 17.0714 16.5557 16.1934C15.8067 16.9414 14.8837 18.3314 13.6547 17.8334C12.9557 17.5524 11.2297 16.7574 9.72174 15.2484C8.21374 13.7394 7.41874 12.0144 7.13574 11.3164C6.63774 10.0854 8.03174 9.16044 8.78074 8.41144C7.90274 7.12144 7.10674 5.93244 6.06474 5.08744C4.99274 5.64744 3.95474 6.92744 4.00174 8.20844C4.04074 9.25444 4.46174 12.8174 8.30774 16.6634ZM16.6877 22.9674C15.2477 22.9144 11.1667 22.3504 6.89274 18.0774C2.61974 13.8034 2.05674 9.72344 2.00274 8.28244C1.92274 6.08644 3.60474 3.95344 5.54774 3.12044C5.78172 3.01941 6.03794 2.98094 6.29127 3.00882C6.5446 3.03669 6.78633 3.12995 6.99274 3.27944C8.60074 4.45244 9.70974 6.22944 10.6627 7.62144C10.861 7.9109 10.9518 8.26055 10.9195 8.60989C10.8872 8.95923 10.7337 9.28628 10.4857 9.53444L9.12974 10.8914C9.44474 11.5864 10.0857 12.7844 11.1357 13.8344C12.1857 14.8844 13.3837 15.5254 14.0797 15.8404L15.4347 14.4844C15.6836 14.2354 16.012 14.0818 16.3627 14.0505C16.7133 14.0193 17.0638 14.1123 17.3527 14.3134C18.7727 15.2974 20.4407 16.3904 21.6567 17.9474C21.8184 18.1553 21.9212 18.4029 21.9544 18.6641C21.9877 18.9253 21.9501 19.1907 21.8457 19.4324C21.0087 21.3854 18.8907 23.0484 16.6877 22.9674Z" fill="#FF0303"/>
<rect x="13" y="5.14844" width="9" height="2.7" rx="0.45" fill="#FF0707"/>
<rect x="16.1504" y="11" width="9" height="2.7" rx="0.45" transform="rotate(-90 16.1504 11)" fill="#FF0707"/>
</g>
<defs>
<clipPath id="clip0_892_257">
<rect width="24" height="24" fill="white"/>
</clipPath>
</defs>
</svg>
